<?xml version="1.0" encoding="UTF-8"?>
<svg xmlns="http://www.w3.org/2000/svg" width="600" height="600" viewBox="0 0 600 600">
  <defs>
    <radialGradient id="furBg" cx="50%" cy="50%" r="75%">
      <stop offset="0%" stop-color="#ffc0d4"/>
      <stop offset="100%" stop-color="#ff7eb6"/>
    </radialGradient>
    <filter id="furNoise" x="0" y="0" width="100%" height="100%">
      <feTurbulence type="fractalNoise" baseFrequency="0.9" numOctaves="2" seed="7"/>
      <feColorMatrix values="0 0 0 0 1
                             0 0 0 0 0.6
                             0 0 0 0 0.78
                             0 0 0 0.65 0"/>
      <feComposite in2="SourceGraphic" operator="in"/>
    </filter>
    <filter id="strands">
      <feTurbulence type="turbulence" baseFrequency="0.012 0.5" numOctaves="3" seed="3"/>
      <feDisplacementMap in="SourceGraphic" scale="40"/>
    </filter>
  </defs>
  <rect width="600" height="600" fill="url(#furBg)"/>
  <g filter="url(#strands)" opacity="0.65">
    <g stroke="#ffe0ec" stroke-width="2" stroke-linecap="round" fill="none">
      <path d="M0 60 Q150 40 300 70 T600 60"/>
      <path d="M0 120 Q150 100 300 130 T600 120"/>
      <path d="M0 180 Q150 160 300 190 T600 180"/>
      <path d="M0 240 Q150 220 300 250 T600 240"/>
      <path d="M0 300 Q150 280 300 310 T600 300"/>
      <path d="M0 360 Q150 340 300 370 T600 360"/>
      <path d="M0 420 Q150 400 300 430 T600 420"/>
      <path d="M0 480 Q150 460 300 490 T600 480"/>
      <path d="M0 540 Q150 520 300 550 T600 540"/>
    </g>
    <g stroke="#ff9ec1" stroke-width="2" stroke-linecap="round" fill="none">
      <path d="M0 30 Q150 50 300 20 T600 30"/>
      <path d="M0 90 Q150 110 300 80 T600 90"/>
      <path d="M0 150 Q150 170 300 140 T600 150"/>
      <path d="M0 210 Q150 230 300 200 T600 210"/>
      <path d="M0 270 Q150 290 300 260 T600 270"/>
      <path d="M0 330 Q150 350 300 320 T600 330"/>
      <path d="M0 390 Q150 410 300 380 T600 390"/>
      <path d="M0 450 Q150 470 300 440 T600 450"/>
      <path d="M0 510 Q150 530 300 500 T600 510"/>
    </g>
  </g>
  <rect width="600" height="600" fill="#ffffff" filter="url(#furNoise)" opacity="0.35"/>
</svg>
