<?xml version="1.0" encoding="UTF-8"?>
<svg xmlns="http://www.w3.org/2000/svg" width="400" height="400" viewBox="0 0 400 400">
  <rect width="400" height="400" fill="#ffffff"/>
  <g fill="none" stroke="#d825e8" stroke-width="8" stroke-linecap="round">
    <!-- Squiggles -->
    <path d="M30 80 q15 -18 30 0 t30 0"/>
    <path d="M250 60 q15 -18 30 0 t30 0"/>
    <path d="M120 220 q15 -18 30 0 t30 0"/>
    <path d="M290 320 q15 -18 30 0 t30 0"/>
    <!-- Zigzags -->
    <path d="M310 130 l15 -20 l15 20 l15 -20"/>
    <path d="M40 280 l15 -20 l15 20 l15 -20"/>
    <path d="M200 350 l15 -20 l15 20 l15 -20"/>
  </g>
  <g fill="#d825e8">
    <!-- Big rings -->
    <circle cx="80" cy="60" r="22" fill="none" stroke="#d825e8" stroke-width="9"/>
    <circle cx="330" cy="200" r="20" fill="none" stroke="#d825e8" stroke-width="9"/>
    <circle cx="180" cy="160" r="14" fill="none" stroke="#d825e8" stroke-width="7"/>
    <circle cx="240" cy="280" r="18" fill="none" stroke="#d825e8" stroke-width="8"/>
    <circle cx="60" cy="340" r="15" fill="none" stroke="#d825e8" stroke-width="7"/>
    <!-- Small dots -->
    <circle cx="170" cy="40" r="4"/>
    <circle cx="280" cy="100" r="5"/>
    <circle cx="120" cy="120" r="4"/>
    <circle cx="380" cy="80" r="3"/>
    <circle cx="220" cy="200" r="4"/>
    <circle cx="40" cy="180" r="3"/>
    <circle cx="320" cy="260" r="4"/>
    <circle cx="160" cy="300" r="5"/>
    <circle cx="100" cy="240" r="3"/>
    <circle cx="370" cy="350" r="4"/>
    <circle cx="280" cy="380" r="3"/>
  </g>
</svg>
